<svg xmlns="http://www.w3.org/2000/svg" xmlns:xlink="http://www.w3.org/1999/xlink" width="200" zoomAndPan="magnify" viewBox="0 0 150 74.999997" height="100" preserveAspectRatio="xMidYMid meet" version="1.0"><defs><filter x="0%" y="0%" width="100%" height="100%" id="30e9b0489d"><feColorMatrix values="0 0 0 0 1 0 0 0 0 1 0 0 0 0 1 0 0 0 1 0" color-interpolation-filters="sRGB"/></filter><clipPath id="ca420d2ad6"><path d="M 18.605469 10.097656 L 133.152344 10.097656 L 133.152344 28.714844 L 18.605469 28.714844 Z M 18.605469 10.097656 " clip-rule="nonzero"/></clipPath><clipPath id="5568570eaf"><path d="M 19.351562 11.398438 C 44.175781 10.125 54.675781 9.898438 66.226562 10.273438 C 81.449219 10.726562 107.699219 12.449219 118.800781 13.875 C 123.976562 14.550781 127.875 14.773438 130.050781 15.976562 C 131.25 16.574219 131.773438 17.398438 132.300781 18.300781 C 132.75 19.273438 133.125 20.324219 133.125 21.449219 C 133.050781 22.800781 132.300781 24.898438 131.476562 25.949219 C 130.800781 26.851562 129.824219 27.449219 128.851562 27.824219 C 127.875 28.199219 125.699219 28.273438 125.625 28.273438 C 125.625 28.273438 128.699219 28.574219 129.148438 27.75 C 129.976562 26.101562 122.699219 17.023438 123.601562 15.449219 C 124.050781 14.625 125.851562 14.699219 127.050781 14.851562 C 128.398438 15.074219 130.273438 15.898438 131.324219 17.023438 C 132.300781 18.074219 133.050781 19.949219 133.125 21.449219 C 133.125 22.949219 132.449219 24.824219 131.476562 25.949219 C 130.5 27.074219 129.675781 27.75 127.273438 28.273438 C 118.351562 30.226562 79.050781 24 59.550781 23.625 C 44.699219 23.398438 25.574219 29.625 20.324219 24.976562 C 17.324219 22.199219 19.351562 11.398438 19.351562 11.398438 " clip-rule="nonzero"/></clipPath><mask id="ff8f3cc4f7"><g filter="url(#30e9b0489d)"><rect x="-15" width="180" fill="#000000" y="-7.5" height="89.999996" fill-opacity="0.63"/></g></mask><clipPath id="2026d13434"><path d="M 0.605469 0.0976562 L 115.152344 0.0976562 L 115.152344 18.714844 L 0.605469 18.714844 Z M 0.605469 0.0976562 " clip-rule="nonzero"/></clipPath><clipPath id="05b6bee9df"><path d="M 1.351562 1.398438 C 26.175781 0.125 36.675781 -0.101562 48.226562 0.273438 C 63.449219 0.726562 89.699219 2.449219 100.800781 3.875 C 105.976562 4.550781 109.875 4.773438 112.050781 5.976562 C 113.25 6.574219 113.773438 7.398438 114.300781 8.300781 C 114.75 9.273438 115.125 10.324219 115.125 11.449219 C 115.050781 12.800781 114.300781 14.898438 113.476562 15.949219 C 112.800781 16.851562 111.824219 17.449219 110.851562 17.824219 C 109.875 18.199219 107.699219 18.273438 107.625 18.273438 C 107.625 18.273438 110.699219 18.574219 111.148438 17.75 C 111.976562 16.101562 104.699219 7.023438 105.601562 5.449219 C 106.050781 4.625 107.851562 4.699219 109.050781 4.851562 C 110.398438 5.074219 112.273438 5.898438 113.324219 7.023438 C 114.300781 8.074219 115.050781 9.949219 115.125 11.449219 C 115.125 12.949219 114.449219 14.824219 113.476562 15.949219 C 112.5 17.074219 111.675781 17.75 109.273438 18.273438 C 100.351562 20.226562 61.050781 14 41.550781 13.625 C 26.699219 13.398438 7.574219 19.625 2.324219 14.976562 C -0.675781 12.199219 1.351562 1.398438 1.351562 1.398438 " clip-rule="nonzero"/></clipPath><clipPath id="9bd6fdd4da"><rect x="0" width="116" y="0" height="19"/></clipPath><clipPath id="6c2bc8db1d"><path d="M 18.335938 19.578125 L 130.683594 19.578125 L 130.683594 47.289062 L 18.335938 47.289062 Z M 18.335938 19.578125 " clip-rule="nonzero"/></clipPath><clipPath id="8bc8573085"><path d="M 129.449219 34.726562 C 90.300781 36.074219 77.175781 37.351562 64.648438 39.226562 C 51.675781 41.25 31.875 47.625 25.273438 47.101562 C 22.949219 46.949219 21.898438 46.5 20.773438 45.523438 C 19.574219 44.550781 18.75 42.675781 18.449219 41.324219 C 18.226562 40.199219 18.449219 39.074219 18.75 38.101562 C 19.125 37.125 19.726562 36.074219 20.550781 35.398438 C 21.675781 34.5 24.148438 33 25.125 33.601562 C 26.699219 34.726562 23.925781 46.050781 25.125 47.101562 C 25.574219 47.476562 26.851562 46.949219 26.851562 46.875 C 26.851562 46.875 24.675781 47.175781 23.625 46.949219 C 22.648438 46.726562 21.523438 46.273438 20.773438 45.523438 C 19.726562 44.550781 18.675781 42.75 18.449219 41.324219 C 18.226562 39.824219 18.675781 37.875 19.5 36.601562 C 20.324219 35.398438 21.300781 34.800781 23.398438 33.824219 C 29.25 31.273438 46.800781 28.273438 59.625 26.25 C 74.101562 24 93.074219 22.273438 105.976562 21.523438 C 115.050781 21 126 17.773438 129.449219 21.074219 C 132 23.625 129.449219 34.726562 129.449219 34.726562 " clip-rule="nonzero"/></clipPath><mask id="84b3e50590"><g filter="url(#30e9b0489d)"><rect x="-15" width="180" fill="#000000" y="-7.5" height="89.999996" fill-opacity="0.63"/></g></mask><clipPath id="fff30a269e"><path d="M 0.335938 0.578125 L 112.683594 0.578125 L 112.683594 28.289062 L 0.335938 28.289062 Z M 0.335938 0.578125 " clip-rule="nonzero"/></clipPath><clipPath id="2eac459420"><path d="M 111.449219 15.726562 C 72.300781 17.074219 59.175781 18.351562 46.648438 20.226562 C 33.675781 22.25 13.875 28.625 7.273438 28.101562 C 4.949219 27.949219 3.898438 27.5 2.773438 26.523438 C 1.574219 25.550781 0.75 23.675781 0.449219 22.324219 C 0.226562 21.199219 0.449219 20.074219 0.75 19.101562 C 1.125 18.125 1.726562 17.074219 2.550781 16.398438 C 3.675781 15.5 6.148438 14 7.125 14.601562 C 8.699219 15.726562 5.925781 27.050781 7.125 28.101562 C 7.574219 28.476562 8.851562 27.949219 8.851562 27.875 C 8.851562 27.875 6.675781 28.175781 5.625 27.949219 C 4.648438 27.726562 3.523438 27.273438 2.773438 26.523438 C 1.726562 25.550781 0.675781 23.75 0.449219 22.324219 C 0.226562 20.824219 0.675781 18.875 1.5 17.601562 C 2.324219 16.398438 3.300781 15.800781 5.398438 14.824219 C 11.25 12.273438 28.800781 9.273438 41.625 7.25 C 56.101562 5 75.074219 3.273438 87.976562 2.523438 C 97.050781 2 108 -1.226562 111.449219 2.074219 C 114 4.625 111.449219 15.726562 111.449219 15.726562 " clip-rule="nonzero"/></clipPath><clipPath id="92f0ef720e"><rect x="0" width="113" y="0" height="29"/></clipPath><clipPath id="9fae45e92b"><path d="M 29.121094 36.953125 L 131.265625 36.953125 L 131.265625 53.648438 L 29.121094 53.648438 Z M 29.121094 36.953125 " clip-rule="nonzero"/></clipPath><clipPath id="7be63e34db"><path d="M 30.226562 36.976562 C 90.449219 37.050781 107.324219 40.125 114.898438 40.125 C 118.050781 40.125 119.25 39.300781 121.726562 39.449219 C 124.648438 39.601562 130.574219 39.601562 131.175781 41.324219 C 131.925781 43.351562 126.074219 49.949219 122.773438 51.898438 C 119.925781 53.550781 117.449219 53.476562 113.175781 53.625 C 104.925781 53.925781 89.398438 50.550781 76.5 50.023438 C 62.101562 49.425781 36.226562 55.949219 30.675781 50.625 C 27.601562 47.773438 30.226562 36.976562 30.226562 36.976562 " clip-rule="nonzero"/></clipPath><mask id="f40fab6898"><g filter="url(#30e9b0489d)"><rect x="-15" width="180" fill="#000000" y="-7.5" height="89.999996" fill-opacity="0.63"/></g></mask><clipPath id="692ce2ca23"><path d="M 0.121094 0.960938 L 102.265625 0.960938 L 102.265625 17.648438 L 0.121094 17.648438 Z M 0.121094 0.960938 " clip-rule="nonzero"/></clipPath><clipPath id="c1c9814a1d"><path d="M 1.226562 0.976562 C 61.449219 1.050781 78.324219 4.125 85.898438 4.125 C 89.050781 4.125 90.25 3.300781 92.726562 3.449219 C 95.648438 3.601562 101.574219 3.601562 102.175781 5.324219 C 102.925781 7.351562 97.074219 13.949219 93.773438 15.898438 C 90.925781 17.550781 88.449219 17.476562 84.175781 17.625 C 75.925781 17.925781 60.398438 14.550781 47.5 14.023438 C 33.101562 13.425781 7.226562 19.949219 1.675781 14.625 C -1.398438 11.773438 1.226562 0.976562 1.226562 0.976562 " clip-rule="nonzero"/></clipPath><clipPath id="eef3dc98af"><rect x="0" width="103" y="0" height="18"/></clipPath><clipPath id="825070f6ae"><path d="M 24.101562 42.449219 L 124 42.449219 L 124 64.394531 L 24.101562 64.394531 Z M 24.101562 42.449219 " clip-rule="nonzero"/></clipPath><clipPath id="b65d687117"><path d="M 122.625 59.101562 C 50.476562 59.925781 37.5 60.449219 31.199219 61.875 C 28.273438 62.476562 26.324219 65.023438 25.050781 64.199219 C 23.324219 63 24.601562 52.5 24.976562 50.699219 C 25.050781 50.175781 24.976562 50.023438 25.273438 49.800781 C 26.101562 49.125 29.023438 48.824219 32.101562 48.375 C 38.550781 47.398438 50.398438 46.425781 62.175781 45.898438 C 78.898438 45.148438 116.175781 39 122.625 45.449219 C 125.699219 48.523438 122.625 59.101562 122.625 59.101562 " clip-rule="nonzero"/></clipPath><mask id="412baee17b"><g filter="url(#30e9b0489d)"><rect x="-15" width="180" fill="#000000" y="-7.5" height="89.999996" fill-opacity="0.63"/></g></mask><clipPath id="67c1aec212"><path d="M 0.101562 0.449219 L 100 0.449219 L 100 22.394531 L 0.101562 22.394531 Z M 0.101562 0.449219 " clip-rule="nonzero"/></clipPath><clipPath id="05ff8a822c"><path d="M 98.625 17.101562 C 26.476562 17.925781 13.5 18.449219 7.199219 19.875 C 4.273438 20.476562 2.324219 23.023438 1.050781 22.199219 C -0.675781 21 0.601562 10.5 0.976562 8.699219 C 1.050781 8.175781 0.976562 8.023438 1.273438 7.800781 C 2.101562 7.125 5.023438 6.824219 8.101562 6.375 C 14.550781 5.398438 26.398438 4.425781 38.175781 3.898438 C 54.898438 3.148438 92.175781 -3 98.625 3.449219 C 101.699219 6.523438 98.625 17.101562 98.625 17.101562 " clip-rule="nonzero"/></clipPath><clipPath id="90f5250834"><rect x="0" width="100" y="0" height="23"/></clipPath></defs><g clip-path="url(#ca420d2ad6)"><g clip-path="url(#5568570eaf)"><g mask="url(#ff8f3cc4f7)"><g transform="matrix(1, 0, 0, 1, 18, 10)"><g clip-path="url(#9bd6fdd4da)"><g clip-path="url(#2026d13434)"><g clip-path="url(#05b6bee9df)"><rect x="-51" width="216" fill="#aeff61" height="107.999996" y="-26.499999" fill-opacity="1"/></g></g></g></g></g></g></g><g clip-path="url(#6c2bc8db1d)"><g clip-path="url(#8bc8573085)"><g mask="url(#84b3e50590)"><g transform="matrix(1, 0, 0, 1, 18, 19)"><g clip-path="url(#92f0ef720e)"><g clip-path="url(#fff30a269e)"><g clip-path="url(#2eac459420)"><rect x="-51" width="216" fill="#aeff61" height="107.999996" y="-35.499999" fill-opacity="1"/></g></g></g></g></g></g></g><g clip-path="url(#9fae45e92b)"><g clip-path="url(#7be63e34db)"><g mask="url(#f40fab6898)"><g transform="matrix(1, 0, 0, 1, 29, 36)"><g clip-path="url(#eef3dc98af)"><g clip-path="url(#692ce2ca23)"><g clip-path="url(#c1c9814a1d)"><rect x="-62" width="216" fill="#aeff61" height="107.999996" y="-52.499999" fill-opacity="1"/></g></g></g></g></g></g></g><g clip-path="url(#825070f6ae)"><g clip-path="url(#b65d687117)"><g mask="url(#412baee17b)"><g transform="matrix(1, 0, 0, 1, 24, 42)"><g clip-path="url(#90f5250834)"><g clip-path="url(#67c1aec212)"><g clip-path="url(#05ff8a822c)"><path fill="#aeff61" d="M -2.023438 0.449219 L 101.710938 0.449219 L 101.710938 25.199219 L -2.023438 25.199219 Z M -2.023438 0.449219 " fill-opacity="1" fill-rule="nonzero"/></g></g></g></g></g></g></g></svg>