<?xml version="1.0" encoding="UTF-8"?>
<svg width="501px" height="126px" viewBox="0 0 501 126" version="1.1" xmlns="http://www.w3.org/2000/svg" xmlns:xlink="http://www.w3.org/1999/xlink">
    <!-- Generator: Sketch 58 (84663) - https://sketch.com -->
    <title>Group 3</title>
    <desc>Created with Sketch.</desc>
    <defs>
        <polygon id="path-1" points="0 0 501 0 501 126 0 126"></polygon>
    </defs>
    <g id="FINAL" stroke="none" stroke-width="1" fill="none" fill-rule="evenodd">
        <g id="overview-2-D" transform="translate(-193.000000, -476.000000)">
            <g id="Group-3" transform="translate(193.000000, 476.000000)">
                <mask id="mask-2" fill="white">
                    <use xlink:href="#path-1"></use>
                </mask>
                <g id="Clip-2"></g>
                <path d="M251.852282,110.773981 C251.735453,110.705746 251.633097,110.610631 251.534877,110.510346 C251.834706,110.628206 252.135569,110.745033 252.435398,110.861859 C252.238959,110.837047 252.009434,110.865995 251.852282,110.773981 M248.487994,110.743999 C248.249165,110.741931 247.749794,109.674985 247.863523,109.222153 C247.961742,108.833421 249.01528,108.259627 249.210685,108.395063 C249.929241,108.895453 250.48651,109.626394 251.094439,110.284964 C250.223901,110.480364 249.35543,110.749168 248.487994,110.743999 M242.380787,111.671374 C242.015823,111.990837 241.314843,111.985668 240.759642,112.00221 C240.540457,112.008413 240.311967,111.681712 240.088646,111.505956 C240.122764,111.246456 240.093815,110.794658 240.202374,110.759507 C240.728626,110.584784 241.318979,110.368707 241.837993,110.455551 C242.576193,110.578581 242.862581,111.24749 242.380787,111.671374 M227.028507,113.111544 C226.536374,113.483735 225.998749,113.857993 225.418735,114.040987 C223.219644,114.733675 220.988503,114.509326 218.813192,113.946905 C218.348974,113.825943 217.803078,113.09707 217.74518,112.595647 C217.690384,112.129375 218.139093,111.265066 218.53404,111.147205 C219.728187,110.794658 221.004011,110.721254 222.005854,110.573412 C223.84515,110.908383 225.407362,111.166849 226.951999,111.50699 C227.145337,111.549378 227.341777,112.016684 227.357285,112.296861 C227.372793,112.568766 227.234252,112.955431 227.028507,113.111544 M210.8884,115.39638 C210.039574,115.827501 209.038765,116.1511 208.093787,116.172811 C198.225276,116.404396 188.468426,117.788738 178.692966,118.968376 C172.821487,119.677605 166.939668,120.185232 162.705876,120.224519 C156.462195,119.545271 151.904794,119.083134 147.363935,118.4959 C146.959682,118.443173 146.400346,117.586101 146.38277,117.085712 C146.363126,116.525358 146.756005,115.813027 147.193342,115.410855 C147.64412,114.99731 148.352336,114.698523 148.969571,114.655101 C153.87436,114.310825 158.726421,113.94277 163.684973,114.86084 C168.49361,115.750995 173.453195,116.053917 178.335239,114.658203 C179.891248,114.212608 181.582698,113.921059 183.184198,114.018242 C186.179387,114.200202 189.07222,113.832146 191.992968,113.274895 C193.919111,112.907873 195.950711,112.492261 197.854109,112.737286 C201.563718,113.212863 205.00865,112.682491 208.470124,111.396366 C209.176273,111.133765 210.340437,111.723067 211.125162,112.19761 C211.57077,112.467448 211.902649,113.317283 211.865429,113.877636 C211.829243,114.41938 211.368127,115.152389 210.8884,115.39638 M139.091755,117.449631 C137.063257,118.083389 135.01408,118.653047 132.971107,119.238214 C132.677482,118.70991 132.140891,118.181606 132.142953,117.65537 C132.147095,116.320654 133.163412,115.197879 134.341016,114.882551 C136.002482,114.436956 137.473712,114.86084 138.803299,115.868856 C139.044196,116.050815 139.291297,116.342365 139.345059,116.61944 C139.394686,116.882041 139.257178,117.397938 139.091755,117.449631 M499.711634,67.2008105 C497.87027,64.3494177 495.540908,62.1348841 492.161112,61.1434099 C486.640122,59.5223135 482.126144,56.0754158 477.876843,52.4413889 C474.866146,49.8660374 472.244193,46.957782 468.349517,45.5662031 C467.308387,45.1950464 466.612577,43.8561944 465.783394,42.8926345 C467.31976,42.9650049 468.855091,43.0363414 470.412134,43.1097457 C471.644535,41.6757783 472.562632,40.2542173 473.809507,39.233795 C475.964141,37.4700255 477.059034,35.3123544 477.794132,32.6356843 C478.56128,29.847357 482.390821,29.0264702 482.850903,25.6974328 C482.959462,24.913765 484.081236,24.1704178 484.878368,23.6090305 C485.657923,23.0590156 486.628749,22.3901065 487.494118,22.4190547 C492.300687,22.582405 495.44579,19.5076978 498.727367,16.7927748 C502.078215,14.0199554 501.390676,8.03699291 497.603525,5.63843182 C495.329994,4.19826131 492.863125,3.29156386 490.190511,3.04343685 C484.608522,2.52547172 479.018261,2.10572353 473.43834,1.57018274 C463.903777,0.656248252 454.275129,1.66839968 444.768481,0.132079946 C443.487488,-0.0746925622 442.124816,-0.0147285349 440.828314,0.147587884 C432.980031,1.12768957 425.053172,-0.0715909745 417.214194,1.03774353 C409.618181,0.26441435 402.097641,1.99820183 394.516103,1.71699122 C383.422429,3.47972684 372.248111,4.41433858 361.031404,4.66039786 C349.787815,4.90645715 338.699311,6.74983405 327.511553,7.53453572 C324.559787,7.74130823 321.599751,7.87054105 318.657291,8.16932732 C309.153745,9.13081948 299.715334,10.9163001 290.077382,10.0240767 C288.144001,9.84521849 286.121706,10.2525603 284.179021,10.5989043 C272.094877,12.7565754 259.802921,11.3618948 247.675354,12.7793204 C246.387123,12.9292304 245.028587,12.7079839 243.731051,12.4908727 C240.466017,11.9429256 237.210287,11.4384007 233.898727,12.0587182 C225.990478,10.7881011 218.147364,13.8297247 210.236014,12.4226378 C201.69709,13.0915469 193.164369,13.8607406 184.617174,14.3973153 C178.031275,14.8098264 171.428833,14.978346 164.830526,15.1654751 C156.922277,15.3887894 148.972672,15.0920709 141.115084,15.8157747 C134.532286,16.422652 127.954658,16.7679621 121.36669,17.1339494 C118.399417,17.2983335 115.419737,17.4513452 112.481412,17.8648902 C101.309162,19.4353274 90.1441497,19.7589264 78.9367474,18.2133019 C77.3672976,17.9972246 75.4235784,17.956904 74.1405169,18.6899125 C70.9075329,20.5353571 67.2051614,20.6780302 63.9122115,21.8132112 C62.7325394,24.7411099 61.4773931,27.3888319 60.6378718,30.1626851 C60.2956531,31.2906291 60.7588373,32.7111563 61.0224801,33.9641977 C61.6800361,37.0916318 61.2892245,37.812234 58.5152891,37.7119494 C56.850721,37.6530192 55.1696107,37.3604361 53.724228,38.346741 C52.0410499,39.4963961 50.1821099,39.9419908 48.2497635,40.4485835 C46.7402795,40.843519 45.1232705,41.798808 44.1245297,42.986716 C40.9546132,46.7541111 37.1333439,50.0521326 35.1451673,54.7282929 C35.1451673,54.7293267 35.1441334,54.7293267 35.1441334,54.7293267 L35.0366085,54.6176696 C36.7446001,58.5814986 36.6691259,58.8906235 33.1662957,60.66163 C33.3627354,61.2726427 33.5333278,61.8939941 33.7659538,62.4915667 C34.5465431,64.4982939 34.2560192,66.3592464 32.9140258,68.002054 C32.0900129,69.0090361 31.2825423,70.3520236 30.1804122,70.7510945 C25.6798751,72.3804619 22.1729094,76.177839 16.8380205,76.1406199 C12.9454126,76.1137395 9.61937823,78.9465228 5.65233005,79.5203165 C2.4544984,79.983487 0.288492156,83.1967317 0.0279510711,86.6839501 C-0.0196080158,87.3187417 -0.0433875593,88.1055111 0.274017651,88.594528 C2.2104996,91.5792892 3.82854245,94.875243 7.32723702,96.4653235 C7.32723702,96.4653235 7.20420373,96.3402262 7.20523763,96.3402262 C9.8364958,98.5940465 13.1563269,99.1709418 16.3541585,99.8667313 C20.5372904,100.777564 24.7876253,101.402017 29.0276213,102.022335 C31.3952367,102.368679 33.493006,103.064468 35.1420656,104.906811 C36.0167393,105.884845 36.9937683,106.795678 38.0338649,107.59382 C39.1628763,108.460197 40.4655817,108.533601 41.7445076,107.836778 C42.3224539,107.52145 42.872485,107.152361 43.4214823,106.786373 C44.9009835,105.796967 46.580026,105.496113 48.1370692,106.215681 C52.6469113,108.298914 57.3004646,109.895198 62.0915256,111.205102 C63.5668912,111.609342 64.8706305,112.917178 66.0544382,114.024445 C67.0025183,114.912533 67.6600744,116.114915 68.4272231,117.191166 C70.2458412,119.744806 72.6527446,121.215993 75.8030172,121.683299 C85.5888163,123.133808 95.3756492,124.463355 105.270007,125.039216 C107.875418,125.191194 109.605121,123.934017 111.449587,123.169993 C115.230534,123.702432 118.858465,123.973304 122.366465,124.771446 C126.319039,125.669873 130.247833,125.2677 134.195237,125.283208 C135.183639,125.287343 136.174109,125.323529 137.158375,125.405204 C150.685833,126.533148 164.202953,125.876645 177.696293,124.927559 C187.885311,124.211092 198.070192,123.276481 208.116533,121.278024 C209.078053,121.08676 210.081964,121.046439 211.06623,121.050575 C217.685214,121.075387 224.197707,119.9278 230.742251,119.184453 C233.395221,118.883599 235.956175,118.58688 238.589501,119.22374 C240.891981,119.779958 243.114851,119.493578 245.363569,118.582745 C246.845138,117.984138 248.562434,117.718436 250.169104,117.736011 C252.83965,117.76496 255.420248,117.530273 258.000845,116.818975 C259.249788,116.474699 260.670358,116.258622 261.917233,116.495376 C265.589621,117.193234 268.952876,116.462293 272.559095,115.606255 C277.309835,114.478311 282.361437,114.643729 287.275531,114.177457 C289.564571,113.959312 291.841203,113.593324 294.114735,113.238709 C297.043754,112.782776 299.945892,112.057004 302.889386,111.824385 C311.090227,111.178221 319.212492,109.586073 327.53223,110.25705 C331.105365,110.545497 334.764313,110.047176 338.261974,108.769322 C340.419709,107.981518 342.74907,107.677563 344.981246,107.081024 C347.252709,106.474147 349.501427,106.367659 351.842161,106.720206 C353.437458,106.960062 355.104094,106.8391 356.730408,106.739849 C366.273242,106.157785 375.626874,103.624822 385.262759,103.941184 C385.91101,103.962895 386.562362,103.716835 387.217851,103.644465 C390.493224,103.284681 393.763428,102.759479 397.048107,102.629212 C405.298575,102.303545 413.558348,102.198091 421.810883,101.919982 C424.444209,101.83107 427.076501,101.545724 429.696386,101.233498 C434.612549,100.647298 439.502863,100.10452 444.488296,100.051793 C450.386657,99.9897609 456.271577,98.7987513 462.187514,99.9256615 C462.501817,99.9856255 462.848172,99.921526 463.174882,99.8760361 C469.052565,99.0437767 474.935417,98.2363301 480.806896,97.3534115 C483.087665,97.011203 485.344654,96.5077119 487.607846,96.0528124 C488.59418,95.8543108 489.745937,94.7211974 489.538124,94.1029476 C489.337549,93.5074428 489.060466,92.799247 488.587977,92.4622078 C487.524101,91.7033527 486.30514,91.1647103 485.173027,90.497869 C484.12466,89.8796192 483.919949,88.8199101 484.757402,88.1530687 C486.551207,86.7242707 488.596248,85.5756494 489.416125,83.2008672 C489.888614,81.8341009 491.034168,80.9842659 492.420619,81.0204511 C495.417875,81.0979908 497.165155,79.3745419 499.02823,77.3471375 C501.676031,74.4636949 501.401015,69.8185505 499.711634,67.2008105" id="Fill-1" fill="#16ca05" mask="url(#mask-2)"></path>
            </g>
        </g>
    </g>
</svg>
